# xmcd
#
# Track frame offsets:
#	150
#	13547
#	23176
#	33441
#	51205
#	61105
#	75487
#	84914
#	96246
#	108358
#	121110
#	133632
#	144921
#	158651
#	170195
#	183370
#	195707
#	205759
#	216478
#	236488
#
# Disc length: 3382
#
# Revision: 2
# Processed by: cddbd v1.5.1PL0 Copyright (c) Steve Scherf et al.
# Submitted via: audiograbber 1.80
# Normalized: r1:DSETVAR1
#
DISCID=060d3414
DTITLE=Various Artist - Country's Greatest Hits
DYEAR=1900
DGENRE=
TTITLE0=Lynn Anderson - Rose Garden
TTITLE1=Merle Travis - 16 Tons
TTITLE2=Johnny Cash - Ballad Of A Teenage Qeen
TTITLE3=Skeeter Davis - Always On My Mind
TTITLE4=Ned Miller - From A Jack To A King
TTITLE5=Billie Jo Spears - Which Way You Goin' Billy
TTITLE6=Bob Luman - Let's Think About Living
TTITLE7=Annie Murray - Last Thing On My Mind
TTITLE8=Patsy Cline - Walking After Midnight
TTITLE9=Gene Autry - Goodnight Irene
TTITLE10=Kenny Rogers - Ruben James
TTITLE11=Buck Owens - Above And Beyond
TTITLE12=Willie Nelson - You'll Always Have Someone
TTITLE13=Dolly Parton - Makin' Believe
TTITLE14=Freddie Fender - Silver Wings
TTITLE15=Frankie Lane - High Noon
TTITLE16=Hank Locklin - Plese Help Me I'm Falling
TTITLE17=Carl Belew - Am I That Easy To Forget
TTITLE18=The Bellamy Brothers - If I Said You Had A beautiful Body
TTITLE19=Glen Campbell - Southern Nights
EXTD=
EXTT0=
EXTT1=
EXTT2=
EXTT3=
EXTT4=
EXTT5=
EXTT6=
EXTT7=
EXTT8=
EXTT9=
EXTT10=
EXTT11=
EXTT12=
EXTT13=
EXTT14=
EXTT15=
EXTT16=
EXTT17=
EXTT18=
EXTT19=
PLAYORDER=
